<svg width="150" height="42" viewBox="0 0 150 42" fill="none" xmlns="http://www.w3.org/2000/svg">
<path d="M17.492 41.06C13.9453 41.06 10.9027 40.4813 8.364 39.324C5.86267 38.1667 3.90267 36.468 2.484 34.228C1.10267 31.988 0.337333 29.2067 0.188 25.884C0.150667 24.3533 0.132 22.7107 0.132 20.956C0.132 19.2013 0.150667 17.5213 0.188 15.916C0.337333 12.668 1.12133 9.924 2.54 7.684C3.95867 5.40667 5.93733 3.68933 8.476 2.532C11.0147 1.33733 14.02 0.739998 17.492 0.739998C19.956 0.739998 22.2333 1.05733 24.324 1.692C26.4147 2.28933 28.244 3.18533 29.812 4.38C31.38 5.53733 32.5933 6.956 33.452 8.636C34.348 10.2787 34.8147 12.1453 34.852 14.236C34.8893 14.572 34.7773 14.852 34.516 15.076C34.292 15.3 34.012 15.412 33.676 15.412H26.116C25.6307 15.412 25.2573 15.3187 24.996 15.132C24.7347 14.908 24.5107 14.516 24.324 13.956C23.8013 11.9773 22.9427 10.6333 21.748 9.924C20.5907 9.17733 19.1533 8.804 17.436 8.804C15.3827 8.804 13.7587 9.38266 12.564 10.54C11.3693 11.66 10.716 13.5453 10.604 16.196C10.492 19.2573 10.492 22.3933 10.604 25.604C10.716 28.2547 11.3693 30.1587 12.564 31.316C13.7587 32.436 15.3827 32.996 17.436 32.996C19.1533 32.996 20.6093 32.6227 21.804 31.876C22.9987 31.1293 23.8387 29.7853 24.324 27.844C24.4733 27.284 24.6787 26.9107 24.94 26.724C25.2387 26.5 25.6307 26.388 26.116 26.388H33.676C34.012 26.388 34.292 26.5 34.516 26.724C34.7773 26.948 34.8893 27.228 34.852 27.564C34.8147 29.6547 34.348 31.54 33.452 33.22C32.5933 34.8627 31.38 36.2813 29.812 37.476C28.244 38.6333 26.4147 39.5293 24.324 40.164C22.2333 40.7613 19.956 41.06 17.492 41.06ZM55.6363 41.06C52.2016 41.06 49.215 40.5 46.6763 39.38C44.1376 38.26 42.159 36.58 40.7403 34.34C39.3216 32.0627 38.5376 29.2253 38.3883 25.828C38.351 24.2227 38.3323 22.6173 38.3323 21.012C38.3323 19.4067 38.351 17.7827 38.3883 16.14C38.5376 12.78 39.3216 9.96133 40.7403 7.684C42.1963 5.36933 44.1936 3.63333 46.7323 2.476C49.271 1.31866 52.239 0.739998 55.6363 0.739998C58.9963 0.739998 61.9456 1.31866 64.4843 2.476C67.0603 3.63333 69.0763 5.36933 70.5323 7.684C71.9883 9.96133 72.7723 12.78 72.8843 16.14C72.959 17.7827 72.9963 19.4067 72.9963 21.012C72.9963 22.6173 72.959 24.2227 72.8843 25.828C72.735 29.2253 71.951 32.0627 70.5323 34.34C69.1136 36.58 67.135 38.26 64.5963 39.38C62.0576 40.5 59.071 41.06 55.6363 41.06ZM55.6363 32.996C57.615 32.996 59.2203 32.3987 60.4523 31.204C61.7216 30.0093 62.3936 28.1053 62.4683 25.492C62.543 23.8493 62.5803 22.3 62.5803 20.844C62.5803 19.388 62.543 17.876 62.4683 16.308C62.3936 14.5533 62.0576 13.1347 61.4603 12.052C60.9003 10.932 60.1163 10.1107 59.1083 9.588C58.1003 9.06533 56.943 8.804 55.6363 8.804C54.367 8.804 53.2283 9.06533 52.2203 9.588C51.2123 10.1107 50.4096 10.932 49.8123 12.052C49.215 13.1347 48.879 14.5533 48.8043 16.308C48.767 17.876 48.7483 19.388 48.7483 20.844C48.7483 22.3 48.767 23.8493 48.8043 25.492C48.9163 28.1053 49.5883 30.0093 50.8203 31.204C52.0523 32.3987 53.6576 32.996 55.6363 32.996ZM94.3835 41.06C90.9488 41.06 87.9622 40.5 85.4235 39.38C82.8848 38.26 80.9062 36.58 79.4875 34.34C78.0688 32.0627 77.2848 29.2253 77.1355 25.828C77.0982 24.2227 77.0795 22.6173 77.0795 21.012C77.0795 19.4067 77.0982 17.7827 77.1355 16.14C77.2848 12.78 78.0688 9.96133 79.4875 7.684C80.9435 5.36933 82.9408 3.63333 85.4795 2.476C88.0182 1.31866 90.9862 0.739998 94.3835 0.739998C97.7435 0.739998 100.693 1.31866 103.232 2.476C105.808 3.63333 107.824 5.36933 109.28 7.684C110.736 9.96133 111.52 12.78 111.632 16.14C111.706 17.7827 111.744 19.4067 111.744 21.012C111.744 22.6173 111.706 24.2227 111.632 25.828C111.482 29.2253 110.698 32.0627 109.28 34.34C107.861 36.58 105.882 38.26 103.344 39.38C100.805 40.5 97.8182 41.06 94.3835 41.06ZM94.3835 32.996C96.3622 32.996 97.9675 32.3987 99.1995 31.204C100.469 30.0093 101.141 28.1053 101.216 25.492C101.29 23.8493 101.328 22.3 101.328 20.844C101.328 19.388 101.29 17.876 101.216 16.308C101.141 14.5533 100.805 13.1347 100.208 12.052C99.6475 10.932 98.8635 10.1107 97.8555 9.588C96.8475 9.06533 95.6902 8.804 94.3835 8.804C93.1142 8.804 91.9755 9.06533 90.9675 9.588C89.9595 10.1107 89.1568 10.932 88.5595 12.052C87.9622 13.1347 87.6262 14.5533 87.5515 16.308C87.5142 17.876 87.4955 19.388 87.4955 20.844C87.4955 22.3 87.5142 23.8493 87.5515 25.492C87.6635 28.1053 88.3355 30.0093 89.5675 31.204C90.7995 32.3987 92.4048 32.996 94.3835 32.996ZM118.515 40.5C118.104 40.5 117.768 40.3693 117.507 40.108C117.245 39.8467 117.115 39.5107 117.115 39.1V2.7C117.115 2.28933 117.245 1.95333 117.507 1.692C117.768 1.43066 118.104 1.3 118.515 1.3H125.571C125.981 1.3 126.317 1.43066 126.579 1.692C126.84 1.95333 126.971 2.28933 126.971 2.7V15.132L137.331 2.364C137.48 2.14 137.723 1.916 138.059 1.692C138.432 1.43066 138.917 1.3 139.515 1.3H147.579C147.915 1.3 148.195 1.43066 148.419 1.692C148.643 1.916 148.755 2.17733 148.755 2.476C148.755 2.73733 148.68 2.96133 148.531 3.148L135.147 20.06L149.595 38.652C149.744 38.8013 149.819 39.0253 149.819 39.324C149.819 39.6227 149.688 39.9027 149.427 40.164C149.203 40.388 148.941 40.5 148.643 40.5H140.299C139.627 40.5 139.104 40.3507 138.731 40.052C138.395 39.7533 138.171 39.5293 138.059 39.38L126.971 25.548V39.1C126.971 39.5107 126.84 39.8467 126.579 40.108C126.317 40.3693 125.981 40.5 125.571 40.5H118.515Z" fill="#FFDBB8"/>
</svg>
